<svg xmlns="http://www.w3.org/2000/svg" viewBox="0 0 512 512">
  <!-- Enhanced AI Compass with More Gradient & AI Elements -->
  <defs>
    <!-- Main gradient matching website -->
    <linearGradient id="mainGrad" x1="0%" y1="0%" x2="100%" y2="100%">
      <stop offset="0%" style="stop-color:#667eea"/>
      <stop offset="50%" style="stop-color:#764ba2"/>
      <stop offset="100%" style="stop-color:#f093fb"/>
    </linearGradient>
    
    <!-- Radial gradient for depth -->
    <radialGradient id="centerGrad" cx="50%" cy="50%">
      <stop offset="0%" style="stop-color:#8b5cf6"/>
      <stop offset="100%" style="stop-color:#667eea"/>
    </radialGradient>
    
    <!-- AI glow effect -->
    <filter id="glow" x="-50%" y="-50%" width="200%" height="200%">
      <feGaussianBlur stdDeviation="3" result="coloredBlur"/>
      <feMerge>
        <feMergeNode in="coloredBlur"/>
        <feMergeNode in="SourceGraphic"/>
      </feMerge>
    </filter>
  </defs>
  
  <!-- Background Circle with enhanced gradient -->
  <circle cx="256" cy="256" r="240" fill="url(#mainGrad)"/>
  
  <!-- AI Neural Network Background Pattern -->
  <!-- Outer ring connections -->
  <circle cx="256" cy="60" r="6" fill="rgba(255,255,255,0.4)"/>
  <circle cx="412" cy="150" r="6" fill="rgba(255,255,255,0.4)"/>
  <circle cx="412" cy="362" r="6" fill="rgba(255,255,255,0.4)"/>
  <circle cx="256" cy="452" r="6" fill="rgba(255,255,255,0.4)"/>
  <circle cx="100" cy="362" r="6" fill="rgba(255,255,255,0.4)"/>
  <circle cx="100" cy="150" r="6" fill="rgba(255,255,255,0.4)"/>
  
  <!-- Neural connection lines -->
  <line x1="256" y1="60" x2="412" y2="150" stroke="rgba(255,255,255,0.2)" stroke-width="2"/>
  <line x1="412" y1="150" x2="412" y2="362" stroke="rgba(255,255,255,0.2)" stroke-width="2"/>
  <line x1="412" y1="362" x2="256" y2="452" stroke="rgba(255,255,255,0.2)" stroke-width="2"/>
  <line x1="256" y1="452" x2="100" y2="362" stroke="rgba(255,255,255,0.2)" stroke-width="2"/>
  <line x1="100" y1="362" x2="100" y2="150" stroke="rgba(255,255,255,0.2)" stroke-width="2"/>
  <line x1="100" y1="150" x2="256" y2="60" stroke="rgba(255,255,255,0.2)" stroke-width="2"/>
  
  <!-- Inner AI nodes -->
  <circle cx="180" cy="180" r="5" fill="rgba(255,255,255,0.5)"/>
  <circle cx="332" cy="180" r="5" fill="rgba(255,255,255,0.5)"/>
  <circle cx="180" cy="332" r="5" fill="rgba(255,255,255,0.5)"/>
  <circle cx="332" cy="332" r="5" fill="rgba(255,255,255,0.5)"/>
  <circle cx="256" cy="130" r="5" fill="rgba(255,255,255,0.5)"/>
  <circle cx="256" cy="382" r="5" fill="rgba(255,255,255,0.5)"/>
  <circle cx="130" cy="256" r="5" fill="rgba(255,255,255,0.5)"/>
  <circle cx="382" cy="256" r="5" fill="rgba(255,255,255,0.5)"/>
  
  <!-- Inner connection lines -->
  <line x1="180" y1="180" x2="332" y2="180" stroke="rgba(255,255,255,0.15)" stroke-width="1.5"/>
  <line x1="332" y1="180" x2="332" y2="332" stroke="rgba(255,255,255,0.15)" stroke-width="1.5"/>
  <line x1="332" y1="332" x2="180" y2="332" stroke="rgba(255,255,255,0.15)" stroke-width="1.5"/>
  <line x1="180" y1="332" x2="180" y2="180" stroke="rgba(255,255,255,0.15)" stroke-width="1.5"/>
  <line x1="256" y1="130" x2="256" y2="382" stroke="rgba(255,255,255,0.15)" stroke-width="1.5"/>
  <line x1="130" y1="256" x2="382" y2="256" stroke="rgba(255,255,255,0.15)" stroke-width="1.5"/>
  
  <!-- Outer decorative ring with gradient stroke -->
  <circle cx="256" cy="256" r="200" fill="none" stroke="url(#mainGrad)" stroke-width="2" opacity="0.5"/>
  <circle cx="256" cy="256" r="190" fill="none" stroke="rgba(255,255,255,0.3)" stroke-width="1"/>
  
  <!-- Compass rose ticks -->
  <line x1="256" y1="66" x2="256" y2="76" stroke="rgba(255,255,255,0.6)" stroke-width="3"/>
  <line x1="256" y1="446" x2="256" y2="436" stroke="rgba(255,255,255,0.6)" stroke-width="3"/>
  <line x1="66" y1="256" x2="76" y2="256" stroke="rgba(255,255,255,0.6)" stroke-width="3"/>
  <line x1="446" y1="256" x2="436" y2="256" stroke="rgba(255,255,255,0.6)" stroke-width="3"/>
  
  <!-- Secondary ticks -->
  <line x1="170" y1="105" x2="177" y2="113" stroke="rgba(255,255,255,0.3)" stroke-width="2"/>
  <line x1="342" y1="105" x2="335" y2="113" stroke="rgba(255,255,255,0.3)" stroke-width="2"/>
  <line x1="170" y1="407" x2="177" y2="399" stroke="rgba(255,255,255,0.3)" stroke-width="2"/>
  <line x1="342" y1="407" x2="335" y2="399" stroke="rgba(255,255,255,0.3)" stroke-width="2"/>
  
  <!-- N Letter at top -->
  <text x="256" y="110" text-anchor="middle" fill="white" font-family="Arial, sans-serif" font-weight="bold" font-size="56" filter="url(#glow)">N</text>
  
  <!-- Main Compass Needle with enhanced gradient -->
  <!-- North pointing arm -->
  <polygon points="256,130 210,290 256,270 302,290" fill="white" filter="url(#glow)"/>
  <polygon points="256,130 220,280 256,265 292,280" fill="url(#centerGrad)"/>
  
  <!-- South pointing arm (shadow) -->
  <polygon points="256,382 210,222 256,242 302,222" fill="rgba(255,255,255,0.3)"/>
  
  <!-- Center hub with gradient -->
  <circle cx="256" cy="256" r="35" fill="white" filter="url(#glow)"/>
  <circle cx="256" cy="256" r="28" fill="url(#mainGrad)"/>
  <circle cx="256" cy="256" r="18" fill="white"/>
  <circle cx="256" cy="256" r="10" fill="url(#centerGrad)"/>
  
  <!-- AI Circuit Pattern in Center - Organic, non-symmetric -->
  <!-- Main circuit node -->
  <circle cx="256" cy="256" r="6" fill="white"/>
  
  <!-- Circuit lines running in different directions (organic) -->
  <!-- Top-right branch -->
  <line x1="256" y1="256" x2="275" y2="240" stroke="rgba(255,255,255,0.9)" stroke-width="2.5"/>
  <circle cx="275" cy="240" r="4" fill="white"/>
  <line x1="275" y1="240" x2="290" y2="230" stroke="rgba(255,255,255,0.7)" stroke-width="1.5"/>
  <line x1="275" y1="240" x2="285" y2="255" stroke="rgba(255,255,255,0.6)" stroke-width="1.5"/>
  
  <!-- Bottom-right branch -->
  <line x1="256" y1="256" x2="270" y2="275" stroke="rgba(255,255,255,0.9)" stroke-width="2.5"/>
  <circle cx="270" cy="275" r="4" fill="white"/>
  <line x1="270" y1="275" x2="285" y2="285" stroke="rgba(255,255,255,0.7)" stroke-width="1.5"/>
  <line x1="270" y1="275" x2="260" y2="295" stroke="rgba(255,255,255,0.6)" stroke-width="1.5"/>
  
  <!-- Bottom-left branch -->
  <line x1="256" y1="256" x2="235" y2="270" stroke="rgba(255,255,255,0.9)" stroke-width="2.5"/>
  <circle cx="235" cy="270" r="4" fill="white"/>
  <line x1="235" y1="270" x2="220" y2="285" stroke="rgba(255,255,255,0.7)" stroke-width="1.5"/>
  <line x1="235" y1="270" x2="245" y2="290" stroke="rgba(255,255,255,0.6)" stroke-width="1.5"/>
  
  <!-- Top-left branch -->
  <line x1="256" y1="256" x2="240" y2="238" stroke="rgba(255,255,255,0.9)" stroke-width="2.5"/>
  <circle cx="240" cy="238" r="4" fill="white"/>
  <line x1="240" y1="238" x2="225" y2="225" stroke="rgba(255,255,255,0.7)" stroke-width="1.5"/>
  <line x1="240" y1="238" x2="230" y2="255" stroke="rgba(255,255,255,0.6)" stroke-width="1.5"/>
  
  <!-- Additional circuit connections -->
  <line x1="240" y1="238" x2="260" y2="230" stroke="rgba(255,255,255,0.5)" stroke-width="1.5"/>
  <line x1="270" y1="275" x2="285" y2="265" stroke="rgba(255,255,255,0.5)" stroke-width="1.5"/>
  
  <!-- Small accent nodes -->
  <circle cx="290" cy="230" r="2.5" fill="rgba(255,255,255,0.8)"/>
  <circle cx="220" cy="285" r="2.5" fill="rgba(255,255,255,0.8)"/>
  <circle cx="225" cy="225" r="2.5" fill="rgba(255,255,255,0.8)"/>
  <circle cx="285" cy="285" r="2.5" fill="rgba(255,255,255,0.8)"/>
  
  <!-- Circuit lines from center to outer hub -->
  <line x1="256" y1="238" x2="256" y2="221" stroke="rgba(255,255,255,0.8)" stroke-width="2"/>
  <line x1="256" y1="274" x2="256" y2="291" stroke="rgba(255,255,255,0.8)" stroke-width="2"/>
  <line x1="238" y1="256" x2="221" y2="256" stroke="rgba(255,255,255,0.8)" stroke-width="2"/>
  <line x1="274" y1="256" x2="291" y2="256" stroke="rgba(255,255,255,0.8)" stroke-width="2"/>
  
  <!-- Corner AI accent dots -->
  <circle cx="120" cy="120" r="4" fill="rgba(255,255,255,0.6)"/>
  <circle cx="392" cy="120" r="4" fill="rgba(255,255,255,0.6)"/>
  <circle cx="120" cy="392" r="4" fill="rgba(255,255,255,0.6)"/>
  <circle cx="392" cy="392" r="4" fill="rgba(255,255,255,0.6)"/>
</svg>