<svg xmlns="http://www.w3.org/2000/svg" viewBox="0 0 512 512">
  <!-- AI Compass with Organic Circuit Board Background -->
  <defs>
    <linearGradient id="mainGrad" x1="0%" y1="0%" x2="100%" y2="100%">
      <stop offset="0%" style="stop-color:#667eea"/>
      <stop offset="50%" style="stop-color:#764ba2"/>
      <stop offset="100%" style="stop-color:#f093fb"/>
    </linearGradient>
    
    <radialGradient id="centerGrad" cx="50%" cy="50%">
      <stop offset="0%" style="stop-color:#8b5cf6"/>
      <stop offset="100%" style="stop-color:#667eea"/>
    </radialGradient>
    
    <filter id="glow" x="-50%" y="-50%" width="200%" height="200%">
      <feGaussianBlur stdDeviation="3" result="coloredBlur"/>
      <feMerge>
        <feMergeNode in="coloredBlur"/>
        <feMergeNode in="SourceGraphic"/>
      </feMerge>
    </filter>
  </defs>
  
  <!-- Background -->
  <circle cx="256" cy="256" r="240" fill="url(#mainGrad)"/>
  
  <!-- ORGANIC CIRCUIT BOARD TRACES -->
  <!-- Branch 1: Top left area -->
  <line x1="80" y1="120" x2="150" y2="180" stroke="rgba(255,255,255,0.25)" stroke-width="3"/>
  <circle cx="80" cy="120" r="5" fill="rgba(255,255,255,0.5)"/>
  <circle cx="150" cy="180" r="4" fill="rgba(255,255,255,0.4)"/>
  <line x1="150" y1="180" x2="200" y2="150" stroke="rgba(255,255,255,0.2)" stroke-width="2"/>
  <line x1="150" y1="180" x2="180" y2="220" stroke="rgba(255,255,255,0.2)" stroke-width="2"/>
  <circle cx="200" cy="150" r="3" fill="rgba(255,255,255,0.3)"/>
  <circle cx="180" cy="220" r="3" fill="rgba(255,255,255,0.3)"/>
  
  <!-- Branch 2: Left side -->
  <line x1="60" y1="280" x2="130" y2="260" stroke="rgba(255,255,255,0.25)" stroke-width="3"/>
  <circle cx="60" cy="280" r="5" fill="rgba(255,255,255,0.5)"/>
  <circle cx="130" cy="260" r="4" fill="rgba(255,255,255,0.4)"/>
  <line x1="130" y1="260" x2="160" y2="290" stroke="rgba(255,255,255,0.2)" stroke-width="2"/>
  <line x1="130" y1="260" x2="170" y2="240" stroke="rgba(255,255,255,0.2)" stroke-width="2"/>
  <circle cx="160" cy="290" r="3" fill="rgba(255,255,255,0.3)"/>
  <circle cx="170" cy="240" r="3" fill="rgba(255,255,255,0.3)"/>
  
  <!-- Branch 3: Bottom left -->
  <line x1="100" y1="400" x2="160" y2="340" stroke="rgba(255,255,255,0.25)" stroke-width="3"/>
  <circle cx="100" cy="400" r="5" fill="rgba(255,255,255,0.5)"/>
  <circle cx="160" cy="340" r="4" fill="rgba(255,255,255,0.4)"/>
  <line x1="160" y1="340" x2="200" y2="360" stroke="rgba(255,255,255,0.2)" stroke-width="2"/>
  <line x1="160" y1="340" x2="190" y2="310" stroke="rgba(255,255,255,0.2)" stroke-width="2"/>
  <circle cx="200" cy="360" r="3" fill="rgba(255,255,255,0.3)"/>
  <circle cx="190" cy="310" r="3" fill="rgba(255,255,255,0.3)"/>
  
  <!-- Branch 4: Bottom right -->
  <line x1="420" y1="380" x2="360" y2="330" stroke="rgba(255,255,255,0.25)" stroke-width="3"/>
  <circle cx="420" cy="380" r="5" fill="rgba(255,255,255,0.5)"/>
  <circle cx="360" cy="330" r="4" fill="rgba(255,255,255,0.4)"/>
  <line x1="360" y1="330" x2="380" y2="290" stroke="rgba(255,255,255,0.2)" stroke-width="2"/>
  <line x1="360" y1="330" x2="320" y2="340" stroke="rgba(255,255,255,0.2)" stroke-width="2"/>
  <circle cx="380" cy="290" r="3" fill="rgba(255,255,255,0.3)"/>
  <circle cx="320" cy="340" r="3" fill="rgba(255,255,255,0.3)"/>
  
  <!-- Branch 5: Right side -->
  <line x1="450" y1="240" x2="380" y2="250" stroke="rgba(255,255,255,0.25)" stroke-width="3"/>
  <circle cx="450" cy="240" r="5" fill="rgba(255,255,255,0.5)"/>
  <circle cx="380" cy="250" r="4" fill="rgba(255,255,255,0.4)"/>
  <line x1="380" y1="250" x2="350" y2="220" stroke="rgba(255,255,255,0.2)" stroke-width="2"/>
  <line x1="380" y1="250" x2="360" y2="280" stroke="rgba(255,255,255,0.2)" stroke-width="2"/>
  <circle cx="350" cy="220" r="3" fill="rgba(255,255,255,0.3)"/>
  <circle cx="360" cy="280" r="3" fill="rgba(255,255,255,0.3)"/>
  
  <!-- Branch 6: Top right -->
  <line x1="430" y1="100" x2="360" y2="160" stroke="rgba(255,255,255,0.25)" stroke-width="3"/>
  <circle cx="430" cy="100" r="5" fill="rgba(255,255,255,0.5)"/>
  <circle cx="360" cy="160" r="4" fill="rgba(255,255,255,0.4)"/>
  <line x1="360" y1="160" x2="330" y2="130" stroke="rgba(255,255,255,0.2)" stroke-width="2"/>
  <line x1="360" y1="160" x2="340" y2="190" stroke="rgba(255,255,255,0.2)" stroke-width="2"/>
  <circle cx="330" cy="130" r="3" fill="rgba(255,255,255,0.3)"/>
  <circle cx="340" cy="190" r="3" fill="rgba(255,255,255,0.3)"/>
  
  <!-- Branch 7: Top area -->
  <line x1="200" y1="50" x2="230" y2="110" stroke="rgba(255,255,255,0.25)" stroke-width="3"/>
  <circle cx="200" cy="50" r="5" fill="rgba(255,255,255,0.5)"/>
  <circle cx="230" cy="110" r="4" fill="rgba(255,255,255,0.4)"/>
  <line x1="230" y1="110" x2="270" y2="100" stroke="rgba(255,255,255,0.2)" stroke-width="2"/>
  <line x1="230" y1="110" x2="250" y2="140" stroke="rgba(255,255,255,0.2)" stroke-width="2"/>
  <circle cx="270" cy="100" r="3" fill="rgba(255,255,255,0.3)"/>
  <circle cx="250" cy="140" r="3" fill="rgba(255,255,255,0.3)"/>
  
  <!-- Branch 8: Bottom area -->
  <line x1="320" y1="460" x2="290" y2="400" stroke="rgba(255,255,255,0.25)" stroke-width="3"/>
  <circle cx="320" cy="460" r="5" fill="rgba(255,255,255,0.5)"/>
  <circle cx="290" cy="400" r="4" fill="rgba(255,255,255,0.4)"/>
  <line x1="290" y1="400" x2="260" y2="420" stroke="rgba(255,255,255,0.2)" stroke-width="2"/>
  <line x1="290" y1="400" x2="310" y2="370" stroke="rgba(255,255,255,0.2)" stroke-width="2"/>
  <circle cx="260" cy="420" r="3" fill="rgba(255,255,255,0.3)"/>
  <circle cx="310" cy="370" r="3" fill="rgba(255,255,255,0.3)"/>
  
  <!-- Cross connections between branches -->
  <line x1="200" y1="150" x2="230" y2="110" stroke="rgba(255,255,255,0.1)" stroke-width="1"/>
  <line x1="170" y1="240" x2="200" y2="150" stroke="rgba(255,255,255,0.1)" stroke-width="1"/>
  <line x1="330" y1="130" x2="350" y2="220" stroke="rgba(255,255,255,0.1)" stroke-width="1"/>
  <line x1="380" y1="290" x2="360" y2="330" stroke="rgba(255,255,255,0.1)" stroke-width="1"/>
  
  <!-- Outer decorative ring -->
  <circle cx="256" cy="256" r="200" fill="none" stroke="rgba(255,255,255,0.2)" stroke-width="1"/>
  
  <!-- Compass ticks -->
  <line x1="256" y1="66" x2="256" y2="76" stroke="rgba(255,255,255,0.6)" stroke-width="3"/>
  <line x1="256" y1="446" x2="256" y2="436" stroke="rgba(255,255,255,0.6)" stroke-width="3"/>
  <line x1="66" y1="256" x2="76" y2="256" stroke="rgba(255,255,255,0.6)" stroke-width="3"/>
  <line x1="446" y1="256" x2="436" y2="256" stroke="rgba(255,255,255,0.6)" stroke-width="3"/>
  
  <!-- N Letter -->
  <text x="256" y="105" text-anchor="middle" fill="white" font-family="Arial, sans-serif" font-weight="bold" font-size="52" filter="url(#glow)">N</text>
  
  <!-- Compass Needle -->
  <polygon points="256,135 215,285 256,265 297,285" fill="white" filter="url(#glow)"/>
  <polygon points="256,135 225,275 256,258 287,275" fill="url(#centerGrad)"/>
  <polygon points="256,377 215,227 256,247 297,227" fill="rgba(255,255,255,0.3)"/>
  
  <!-- Center hub -->
  <circle cx="256" cy="256" r="40" fill="white" filter="url(#glow)"/>
  <circle cx="256" cy="256" r="32" fill="url(#mainGrad)"/>
  <circle cx="256" cy="256" r="22" fill="white"/>
  <circle cx="256" cy="256" r="12" fill="url(#centerGrad)"/>
  <circle cx="256" cy="256" r="5" fill="white"/>
  
  <!-- Center circuit connections -->
  <line x1="256" y1="216" x2="256" y2="200" stroke="rgba(255,255,255,0.8)" stroke-width="2"/>
  <line x1="256" y1="296" x2="256" y2="312" stroke="rgba(255,255,255,0.8)" stroke-width="2"/>
  <line x1="216" y1="256" x2="200" y2="256" stroke="rgba(255,255,255,0.8)" stroke-width="2"/>
  <line x1="296" y1="256" x2="312" y2="256" stroke="rgba(255,255,255,0.8)" stroke-width="2"/>
</svg>